<?xml version="1.0" encoding="utf-8"?>
<svg xmlns="http://www.w3.org/2000/svg" xmlns:xlink="http://www.w3.org/1999/xlink" width="588" height="568.242"><defs><linearGradient id="a" x1=".5" x2=".5" y2="1" gradientUnits="objectBoundingBox"><stop offset="0" stop-color="#0184c8"/><stop offset="1" stop-color="#00adee"/></linearGradient><linearGradient id="b" x1=".631" y1=".134" x2=".34" y2=".925" xlink:href="#a"/><linearGradient id="c" y1=".5" x2="1" y2=".5" gradientUnits="objectBoundingBox"><stop offset=".059" stop-color="#88b6ea"/><stop offset=".941" stop-color="#bad5eb"/></linearGradient><linearGradient id="d" y1=".5" x2="1" y2=".5" gradientUnits="objectBoundingBox"><stop offset="0" stop-color="#f0f7ff"/><stop offset=".356" stop-color="#d3deea"/><stop offset=".605" stop-color="#d3deea"/><stop offset=".82" stop-color="#d3deea"/><stop offset="1" stop-color="#d3deea"/></linearGradient></defs><g transform="translate(-670.133 -241.477)"><path data-name="Path 5186" d="M1115.3 504.1s-29.7-59.646-1.251-91.486-16.611-84.778 32.767-117.528 44.007-53.613 44.007-53.613 30.6 76.341 4.908 112.845-27.051 103.515-38.576 120.618-24.281 55.6-24.281 55.6z" transform="translate(-26.658)" fill="url(#a)"/><path data-name="Path 5187" stroke="#fff" d="M1103.076 471.865s7.939-58.66 28.93-112.092c12.016-30.587 36.287-88.064 33.708-107.692" fill="none" stroke-linecap="round" stroke-linejoin="round" stroke-width="3.585" opacity=".277"/><path data-name="Path 5188" d="M1116.7 552.849s28.857-109.458 83.442-141.6 85.585-5.918 85.585-5.918-26.765 4.036-46.307 30.92-38.671 41.672-52.1 50.494-31.34 56.981-31.34 56.981z" transform="translate(-27.598 -9.643)" fill="url(#b)"/><path data-name="Path 5189" stroke="#fff" d="M1126.667 484.361s37.377-58.468 58.932-66.446 42.148-25.241 60.5-23.705" fill="none" stroke-linecap="round" stroke-linejoin="round" stroke-width="3.585" opacity=".3"/><path data-name="Path 5190" d="M946.328 556.438l-167.55-96.735 166.5-96.131 169.2 96.535z" fill="#edf7ff"/><path data-name="Path 5191" d="M964.374 571.065l.216 129.775 167.934-96.207v-129.9z" transform="translate(-18.045 -14.627)" fill="url(#c)"/><path data-name="Path 5192" d="M779.024 459.7v129.73l167.55 96.735V556.432z" fill="#cce9ff"/><g data-name="Group 2057" transform="translate(679.884 541.831)"><ellipse data-name="Ellipse 3079" cx="12.405" cy="21.488" rx="12.405" ry="21.488" transform="rotate(-89.689 74.858 74.453)" fill="#dbefff" opacity=".07"/><path data-name="Path 5193" d="M34.919 137.924l-8.605-2.911-2.591 2.068c-1.362 1.77-1.942 2.795-1.26 4.544.573 1.471 3.131 2.083 4.577 2.216l6.671-.095c4.838.115 5.432-1.541 5.756-3.005.219-1.725-1.662-2.391-4.548-2.817z" fill="#f0f7ff"/><path data-name="Path 5194" d="M15.651 125.962l-8.9 1.815-1.2 3.09c-.287 2.215-.272 3.393 1.2 4.561 1.235.982 3.755.225 5.07-.389l5.714-3.438c4.238-2.336 3.919-4.066 3.461-5.494-.676-1.597-2.636-1.229-5.345-.145z" fill="#f0f7ff"/><path data-name="Path 5195" d="M25.706 8.859l-.1.933s-.3 2.813-2.832.956-1.928-5.33-1.928-5.33 2.126.066 4.86 3.441z" fill="#fff" opacity=".46"/><path data-name="Path 5196" d="M22.739 10.826c3.31 2.4 3.67-.879 3.67-.879l.026.019.06-1.126c-3.489-4.038-6.058-4.253-6.058-4.253a6.094 6.094 0 002.302 6.239zm-1.776-5.257s2.057.2 4.723 3.323l-.095.807s-.268 2.436-2.73.65a5.052 5.052 0 01-1.895-4.782z" fill="#513554"/><path data-name="Path 5197" d="M27.661 10.772L25.674 9.48l.065-1.225 1.987 1.292z" fill="#513554"/><path data-name="Path 5198" d="M20.472 5.538l-.352-.229a.86.86 0 01-.322-.7c.014-.264.181-.378.373-.253l.352.23a.858.858 0 01.322.7c-.01.264-.173.377-.373.252z" fill="#513554"/><path data-name="Path 5199" d="M33.33 13.896l-.352-.229a.861.861 0 01-.322-.7c.014-.263.181-.377.373-.252l.352.229a.861.861 0 01.322.7c-.014.264-.181.377-.373.252z" fill="#513554"/><g data-name="Group 2050"><g data-name="Group 2049"><g data-name="Group 2047"><g data-name="Group 2046"><path data-name="Path 5200" d="M33.171 12.863a11.051 11.051 0 00-6.09-3.644l-.06 1.126.027.017a6.671 6.671 0 003.336 5.433c3.335 1.918 2.787-2.932 2.787-2.932zm-2.851 2.333a4.961 4.961 0 01-2.482-4.039l-.006-.873a8.592 8.592 0 014.748 2.836s.221 3.503-2.26 2.076z" fill="#1b2837"/></g></g><g data-name="Group 2048"><path data-name="Path 5201" d="M28.238 11.844c-.073-.12-.081-.259-.017-.311l.742-.606c.064-.052.174 0 .248.122.073.12.081.259.017.311l-.742.606c-.064.053-.176-.002-.248-.122z" fill="#2c4482"/></g></g></g><path data-name="Path 5202" d="M21.155 7.074c-.073-.119-.081-.259-.017-.31l.742-.606c.064-.053.174 0 .247.122.072.119.08.259.016.31l-.742.606c-.063.053-.174-.002-.246-.122z" fill="#fcfeff"/><path data-name="Path 5203" d="M15.324 24.519l2.016-8.986 5.481 3.689-1.651 8.181c-.161 1.332-6.243.169-5.846-2.884z" fill="#ffc2b0"/><path data-name="Path 5204" d="M20.49 2.1s-4.867-4.6-6.3 4.593a16.221 16.221 0 006.939 15.8c3.036 2.043 7.331.65 7.986-2.509 1.473-4.531 2.135-8.873 1.17-12.841.79-3.809-2.057-2.838-6.587-3.769z" fill="#ffc2b0"/><path data-name="Path 5205" d="M14.714 19.485s-5.936-3.274-4.016-12.027C12.775-2.013 21.453.126 26.414.389c2.2.116 3.75.029 5.672 2.339 1.748 2.1-.744 5.862-3.675 5.69-1.163-.068-1.1 3.1-1.49 4.126-.694 1.824-2.006 2.57-2.714 4.332-.67 1.668-3.625 4-5.312 3.941-3.003-.1-4.181-1.332-4.181-1.332z" fill="#0d0c33"/><path data-name="Path 5206" d="M33.141 14.167l-8.226-.435a.534.534 0 01-.5-.56.533.533 0 01.559-.5l8.226.436a.534.534 0 01.5.56.534.534 0 01-.559.499z" fill="#1b2837"/><path data-name="Path 5207" d="M25.955 15.249c-.1 1.532-1.065 2.719-2.163 2.65a1.451 1.451 0 01-.349-.065 2.689 2.689 0 01-1.465-2.835c.1-1.533 1.066-2.719 2.163-2.651s1.911 1.364 1.814 2.901z" fill="#ffc2b0"/><path data-name="Path 5208" d="M45.314 46.307a2.324 2.324 0 01-1.439-2.944l1.779-5.175a2.323 2.323 0 012.943-1.438 2.324 2.324 0 011.439 2.944l-1.779 5.175a2.322 2.322 0 01-2.943 1.438z" fill="#edb2a1"/><g data-name="Group 2051"><path data-name="Path 5209" d="M7.905 36.961a21.71 21.71 0 0011.782 10.974c7.256 2.578 14.76-.569 20.573-4.951 2.6-1.963.051-6.418-2.588-4.429-4.705 3.548-10.662 6.66-16.621 4.434-3.984-1.488-6.86-4.909-8.718-8.617-1.479-2.951-5.9-.357-4.429 2.589z" fill="#edb2a1"/></g><g data-name="Group 2052"><path data-name="Path 5210" d="M19.744 81.901c3.408 10.017 3.728 20.777 3.4 31.26-.241 7.8-1.466 15.659-1.275 23.457.125 5.12 8.1 5.14 7.971 0-.2-8.03 1.076-16.124 1.3-24.155.3-10.909-.165-22.265-3.709-32.681-1.643-4.829-9.345-2.756-7.686 2.119z" fill="#9dc3eb"/></g><g data-name="Group 2053"><path data-name="Path 5211" d="M3.712 72.921A118.387 118.387 0 016.97 92.937a56.7 56.7 0 01.418 11.6c-.835 7.916-2.3 15.982-2.254 23.957.033 5.127 8 5.138 7.971 0-.052-8.1 1.457-16.295 2.295-24.341.42-4.046-.139-8-.539-12.041a127.819 127.819 0 00-3.462-21.308c-1.357-4.94-9.049-2.843-7.686 2.119z" fill="#9dc3eb"/></g><path data-name="Path 5212" d="M10.242 83.457c.736.825-2.427-3.188-1.48-2.616 1.971 1.191 13.036 8.708 15.339 8.747 2.782.046 1.16-2.642 3.231-4.5 1.964-1.763 2.427-4.626 2.618-7.259a4.554 4.554 0 00-.2-2.156 4.639 4.639 0 00-1.592-1.711c-4.915-3.72-14.584-12.929-21.452-9.984-7.931 3.402.014 15.531 3.536 19.479z" fill="#9dc3eb"/><path data-name="Path 5213" d="M4.475 24.568c-1.456 1.876-1.283 3.036-1.213 5.6a5.721 5.721 0 004.178 5.349l24.64 6.91s1.416-9.479-3.444-12.332c-2.619-1.537-6.68-4-9.87-5.938-4.685-2.855-10.93-3.925-14.291.411z" fill="#18bdf7"/><path data-name="Path 5214" d="M3.175 69.105c-1.569-.606-1.194-27.565.216-42.455l27.735 13.2c-.14 12.675-1.741 22.677-.222 38.122z" fill="#18bdf7"/><path data-name="Path 5215" d="M21.651 80.726c-6.853-2.5-13.38-5.236-17.215-9.939-1.883-1.087-1.645-3 .53-4.26a8.233 8.233 0 017.379-.307l17.215 9.939c1.883 1.088 1.645 3-.53 4.261a8.235 8.235 0 01-7.379.306z" fill="#18bdf7"/><path data-name="Path 5216" d="M31.126 39.846l-4.571-2.174c-.187 12.355-1.7 22.28-.21 37.449l-.076-.024a2.982 2.982 0 01-1.8 2.475 8.23 8.23 0 01-7.379.306 79.136 79.136 0 01-9.379-3.957c3.784 2.9 8.767 4.921 13.938 6.807a8.235 8.235 0 007.379-.306 2.982 2.982 0 001.8-2.476l.076.024c-1.518-15.447.083-25.449.222-38.124z" fill="#18bdf7"/><path data-name="Path 5217" d="M25.511 27.594c-6.363-.957-10.661 3.043-12.18-6.121a2.034 2.034 0 012.747.6 6.341 6.341 0 005.981 2.26 2.017 2.017 0 011.941.911z" fill="#fff"/><g data-name="Group 2054"><path data-name="Path 5218" d="M25.321 36.486c.3 4.112.288 8.424 1.717 12.343 1.333 3.657 3.028 8.347 6.055 10.956 8.018 6.913 13.582-8.376 15.227-13.549 1-3.152-3.947-4.5-4.945-1.363-1.106 3.476-2.339 7.857-5.01 10.526-1.276 1.273-1.667 1.105-2.807-.519-3.949-5.63-4.625-11.79-5.109-18.394-.239-3.272-5.37-3.3-5.128 0z" fill="#edb2a1"/></g><path data-name="Path 5219" d="M23.897 36.404c1.551 13.115 5.687 21.456 11.415 25.7 3.012 1.667 5.83-3.087 4.679-5.956-5.7-5.073-7.707-12.982-8.25-22.012a4.134 4.134 0 00-4.9-2.292 3.865 3.865 0 00-2.944 4.56z" fill="#18bdf7"/><path data-name="Path 5220" d="M39.872 54.338c.48 2.017 1.1 6.485-2.276 8.1a1.9 1.9 0 01-1.6.008l-1.032-.462a1.926 1.926 0 01-.885-2.717 18.3 18.3 0 002.01-4.865 1.938 1.938 0 012.554-1.427l.016.005a1.919 1.919 0 011.213 1.358z" fill="#fff"/><g data-name="Group 2056"><g data-name="Group 2055"><path data-name="Path 5221" d="M45.249 46.065l-5.556-4.146a.987.987 0 01-.223-1.2l5.447-11.051a.653.653 0 01.977-.327l5.527 4.031a.988.988 0 01.222 1.2l-5.42 11c-.137.278-.278.313-.56.381z" fill="#18bdf7"/><path data-name="Path 5222" d="M45.89 34.891s-6.629 6.251-6.42 5.828l5.451-11.432.521-.052a.576.576 0 01.451.107l5.527 4.031a.837.837 0 01.31.517z" fill="#18bdf7"/><path data-name="Path 5223" d="M44.682 45.998l-5.509-4.028a.981.981 0 01-.206-1.2l5.448-11.052a.644.644 0 01.967-.328l5.506 4.028a.98.98 0 01.2 1.2l-5.447 11.051a.637.637 0 01-.959.329z" fill="#1b2837"/><path data-name="Path 5224" d="M50.873 35.494l-.311.632c-.022.044 0 .069.056.056l-.007-.007a.191.191 0 00.113-.107l.311-.632c.022-.043.018-.066-.036-.053a.209.209 0 00-.126.111z" fill="#45446c"/><path data-name="Path 5225" d="M50.329 36.599l-.311.632c-.022.043 0 .068.056.056l-.008-.007a.192.192 0 00.113-.106l.311-.632c.021-.044.018-.066-.036-.053v.006a.207.207 0 00-.125.104z" fill="#45446c"/><path data-name="Path 5226" d="M45.549 44.177l-5.427-3.957 4.773-9.749 5.394 3.934-4.82 9.491c-.041.082.154.34.08.281z" fill="#dbedff"/><path data-name="Path 5227" d="M48.774 32.763l-1.7-1.243a.181.181 0 01-.04-.218.119.119 0 01.177-.059l1.7 1.244a.179.179 0 01.04.217.119.119 0 01-.177.059z" fill="#8787cc"/></g><path data-name="Path 5228" d="M47.454 44.448l.663-1.382c-.533-.014-1.154 2.165-1.142 1.724l.02-6.159a.9.9 0 01.992-.775.9.9 0 01.948.829l-.085 3.042c-.016.439-.865 2.735-1.396 2.721z" fill="#edb2a1"/></g></g><path data-name="Path 5229" d="M871.836 749.908l-106.425-61.445 105.761-61.061 107.471 61.318z" fill="#f0f7ff"/><path data-name="Path 5230" d="M884.9 779.829l.1 59.785 106.7-61.131v-59.842z" transform="translate(-13.061 -29.922)" fill="url(#c)"/><path data-name="Path 5231" d="M765.566 688.46v59.815l106.425 61.445v-59.816z" fill="#cce9ff"/><g data-name="Group 2068"><path data-name="Path 5232" d="M1043.228 491.785l-95.953-54.32c-1.111-.629-.993-1.742.263-2.474l45.012-26.234a4.816 4.816 0 014.3-.187l95.953 54.321c1.111.629.992 1.741-.263 2.474l-45.012 26.234a4.818 4.818 0 01-4.3.186z" fill="#f0f7ff" opacity=".4" style="mix-blend-mode:multiply;isolation:isolate"/><g data-name="Group 2058"><path data-name="Path 5233" d="M1051.423 386.9a7.21 7.21 0 013.532 5.647l-2.383 89.016c-.051 1.964-1.717 2.614-3.721 1.457l-147.626-85.274a7.206 7.206 0 01-3.532-5.647l2.381-89.016c.052-1.962 1.717-2.615 3.721-1.458z" fill="#d8ebff"/></g><path data-name="Path 5234" d="M1073.72 370.438v-.059q0-.079-.011-.157c0-.042-.009-.084-.014-.127v-.032l-.022-.152-.027-.154v-.043l-.023-.108a3.212 3.212 0 00-.037-.151l-.02-.071-.009-.031-.013-.049-.047-.152c-.017-.052-.031-.1-.048-.144l-.056-.154-.059-.152-.017-.04-.012-.029-.035-.082c-.021-.048-.042-.1-.065-.144s-.035-.073-.052-.11l-.007-.016-.007-.016-.068-.138c-.023-.046-.046-.088-.069-.131l-.031-.056-.013-.023-.028-.052-.079-.136-.081-.135-.009-.013-.013-.02a4.235 4.235 0 00-.09-.142l-.089-.13c-.02-.029-.038-.058-.059-.086l-.028-.041a4.87 4.87 0 00-.155-.208l-.05-.068-.008-.01q-.1-.129-.207-.256l-.03-.036-.028-.032-.074-.085-.126-.14-.05-.052-.025-.027-.047-.049a4.957 4.957 0 00-.125-.126l-.1-.094-.018-.017-.016-.015-.137-.126-.144-.125c-.047-.039-.094-.078-.141-.115l-.15-.117-.019-.013-.021-.016-.11-.081c-.037-.027-.1-.07-.15-.1l-.042-.027-.014-.009-.089-.058-.15-.092c-.012-.007-3.564-2.057-3.575-2.065l-.015.009-143.557-82.923-.009-.006-.218-.126-.386-.221c-.051-.028-.1-.054-.15-.079s-.1-.051-.151-.074l-.151-.067-.155-.062c-.052-.02-.1-.038-.155-.055s-.109-.035-.163-.05h-.025l-.14-.037-.07-.014-.057-.012-.045-.009a3.225 3.225 0 00-.168-.023h-.014a2.682 2.682 0 00-.195-.015h-.238c-.047 0-.092.008-.137.014-.024 0-.05 0-.073.007h-.016a1.9 1.9 0 00-.258.062h-.019c-.008 0-.017.008-.026.011a1.624 1.624 0 00-.3.137l-3.672 2.147a1.648 1.648 0 01.3-.134c.04-.014.083-.025.125-.037s.1-.026.152-.037.125-.02.189-.025c.024 0 .049-.007.073-.007a2.489 2.489 0 01.277 0h.052a2.814 2.814 0 01.3.037h.022a3.13 3.13 0 01.325.078l.027.008c.108.032.218.07.331.115l.033.013c.118.048.238.1.36.163l.149.079.116.065.81.469 143.3 82.775-.133.082s3.741 1.987 3.791 2.018.1.064.15.1.1.068.15.1l.15.111.062.048c.08.061.158.124.236.189l.232.2.029.027c.072.066.143.136.213.206l.032.032c.068.069.135.14.2.212l.035.038c.066.072.129.145.191.22.033.038.064.078.095.116l.115.142c.038.047.084.112.125.17l.082.111.068.1c.04.059.08.117.118.176l.031.048c.052.082.1.164.152.246l.011.021c.052.087.1.175.147.263l.015.027a6.3 6.3 0 01.13.26l.016.034c.04.085.079.172.115.258l.016.038a5.9 5.9 0 01.1.257l.014.039c.031.086.06.172.087.258l.011.038c.026.086.051.172.072.259l.008.034c.022.087.041.173.057.259l.024.129c.007.043.016.1.022.152l.018.158c.005.052.008.1.011.157s0 .113.006.169 0 .087 0 .13l-.006.233-.377 14.062-.784-.451-3.824 2.058s1.064.616 1.115.648.1.064.149.1.1.068.151.1.1.072.149.11l.063.048c.079.062.157.125.235.19.079.067.156.135.231.2l.029.026c.072.067.144.136.214.206l.032.033c.067.069.135.14.2.212l.035.038c.066.072.129.145.192.219l.095.117.114.142c.038.048.084.112.126.169l.081.111.068.1c.04.058.081.117.119.176l.03.047c.052.082.1.164.152.247l.012.021c.051.087.1.174.147.263l.014.027c.045.086.089.173.13.26l.016.034c.04.085.079.171.115.257l.017.039c.035.085.069.171.1.257l.015.039c.031.085.06.172.086.258l.011.037c.027.087.051.173.073.259l.008.035a4.592 4.592 0 01.093.481L1067.7 460.8c-.011.417-1.273 3.034-.934 2.836l.942-.858-.539 20.107c-.011.417-1.273 3.034-.935 2.836l3.453-3.143a3.7 3.7 0 001.176-2.678l2.3-86.09.028-1.044v-.129V392.463c0-.052-.007-.1-.011-.157s-.008-.083-.014-.126v-.033c0-.019-.006-.039-.008-.059l.546-20.368.027-1.043v-.13c0-.043-.01-.073-.011-.109z" transform="translate(-15.019 -2.367)" fill="url(#d)"/><g data-name="Group 2061"><g data-name="Group 2060"><g data-name="Group 2059"><path data-name="Path 5235" d="M1051.526 376.52c2 1.157 3.385.018 3.332 1.981l-2.009 92.713c-.051 1.964-1.892 2.583-3.895 1.426l-147.626-85.275a7.208 7.208 0 01-3.532-5.646l2.381-89.017c.053-1.962 1.718-2.614 3.721-1.457z" fill="#1b2837"/></g></g></g><g data-name="Group 2064"><g data-name="Group 2063"><g data-name="Group 2062"><path data-name="Path 5236" d="M1051.526 364.811a7.206 7.206 0 013.532 5.647l-2.209 89.047c-.051 1.965-1.891 2.584-3.895 1.427l-147.626-85.275c-2-1.157-3.456 3.214-3.4 1.251l2.252-95.915c.053-1.962 1.718-2.614 3.721-1.457z" fill="#1b2837"/></g></g></g><path data-name="Path 5237" d="M1051.261 375.636c.066-1.646-1.42-3.852-3.317-4.931l-139.831-79.47c-1.9-1.079-3.487-.62-3.552 1.026l-.425 10.781a2.062 2.062 0 00-.1.589l-1.934 74.78c-.066 1.645 2.081 4.664 3.979 5.743l138.15 78.514c1.9 1.079 3.49.62 3.552-1.026l.426-10.78a2.066 2.066 0 00.1-.591z" fill="#18bdf7"/><path data-name="Path 5238" d="M1049.51 489.062l-.043-5.849-5.672 3.633-1.218-2.806-142.235-82.117c-1.713-.99-5.117-.864-7.094.277l-61.62 35.355v-.984l-10.5 2.4-.177 1.616.177 4.319a2 2 0 001.086 1.666l148.013 85.68a7.469 7.469 0 006.713-.165l70.924-40.892a2.719 2.719 0 001.635-2.159z" fill="#d3deea"/><path data-name="Path 5239" d="M970.153 526.504L822.14 441.051c-1.713-.99-1.5-2.733.482-3.875l70.924-40.948a7.489 7.489 0 016.711-.278l148.009 85.454c1.714.989 1.5 2.732-.482 3.875l-70.923 40.947a7.487 7.487 0 01-6.708.278z" fill="#edf6ff"/><g data-name="Group 2067"><g data-name="Group 2066"><g data-name="Group 2065" fill="#d5ddeb"><path data-name="Path 5240" d="M902.418 411.783a1.136 1.136 0 01-.978-.113l-8.986-5.186c-.324-.187-.412-.44-.2-.564l5.953-3.439a1.13 1.13 0 01.978.114l8.986 5.185c.323.187.413.44.2.564z"/><path data-name="Path 5241" d="M912.842 427.265a1.126 1.126 0 01-.98-.112l-8.985-5.185c-.323-.187-.41-.439-.192-.564l5.955-3.44a1.126 1.126 0 01.971.114l8.985 5.185c.329.189.413.441.2.562z"/><path data-name="Path 5242" d="M907.572 433.694a1.127 1.127 0 01-.975-.115l-8.988-5.186c-.319-.184-.414-.438-.2-.562l5.956-3.441a1.143 1.143 0 01.973.115l8.988 5.187c.323.186.412.44.2.561z"/><path data-name="Path 5243" d="M893.314 434.934a1.131 1.131 0 01-.973-.112l-8.987-5.186c-.32-.185-.409-.44-.2-.562l5.954-3.44a1.14 1.14 0 01.976.112l8.987 5.186c.322.186.407.44.194.562z"/><path data-name="Path 5244" d="M868.585 431.327a1.132 1.132 0 01-.976-.114l-8.986-5.185c-.324-.187-.414-.441-.2-.564l6.99-4.039a1.143 1.143 0 01.977.115l8.986 5.185c.323.186.409.442.2.563z"/><path data-name="Path 5245" d="M884.079 440.267a1.456 1.456 0 01-1.16-.221l-11.773-6.794c-.422-.243-.594-.544-.38-.668l6.991-4.039a1.471 1.471 0 011.156.219l11.773 6.793c.427.247.592.549.383.67z"/><path data-name="Path 5246" d="M961.421 484.965a1.111 1.111 0 01-.911-.152l-8.979-5.182c-.327-.189-.449-.427-.27-.53l2.585-1.493a1.125 1.125 0 01.917.156l8.979 5.182c.323.187.44.423.263.525z"/><path data-name="Path 5247" d="M973.427 492.072a1.1 1.1 0 01-.911-.152l-8.978-5.181c-.328-.189-.449-.427-.271-.53l2.585-1.493a1.125 1.125 0 01.918.156l8.979 5.181c.323.187.441.424.263.526z"/><path data-name="Path 5248" d="M986.155 499.252a1.115 1.115 0 01-.9-.159l-8.982-5.184c-.321-.186-.451-.422-.279-.521l2.489-1.438a1.129 1.129 0 01.9.16l8.982 5.184c.323.186.447.421.276.519z"/><path data-name="Path 5249" d="M978.327 489.332a1.113 1.113 0 01-.9-.159l-8.982-5.184c-.322-.186-.452-.422-.28-.521l2.49-1.438a1.124 1.124 0 01.9.16l8.982 5.184c.323.186.447.421.276.519z"/><path data-name="Path 5250" d="M945.89 475.932a1.138 1.138 0 01-.98-.116l-58.474-33.744c-.319-.184-.414-.441-.2-.564l6.99-4.039a1.157 1.157 0 01.978.115l58.479 33.743c.325.187.413.445.2.566z"/><path data-name="Path 5251" d="M882.476 438.038a.139.139 0 01-.094-.026l-6.869-3.964c-.037-.022-.058-.046-.045-.054l.434-.25a.141.141 0 01.094.025l6.868 3.965c.039.021.058.046.045.053z"/><path data-name="Path 5252" d="M864.863 427.113a.057.057 0 01-.053 0l-2.916-1.682c-.016-.009-.019-.023-.006-.032l.435-.25a.06.06 0 01.053 0l2.916 1.683c.016.009.018.023.006.031z"/><path data-name="Path 5253" d="M905.632 442.037a1.132 1.132 0 01-.977-.115l-8.985-5.185c-.319-.184-.412-.442-.2-.564l5.955-3.439a1.149 1.149 0 01.979.113l8.985 5.185c.325.188.411.443.2.565z"/><path data-name="Path 5254" d="M918.004 449.176a1.137 1.137 0 01-.973-.112l-8.984-5.185c-.323-.186-.413-.442-.2-.564l5.954-3.44a1.146 1.146 0 01.98.114l8.984 5.185c.319.184.408.44.194.562z"/><path data-name="Path 5255" d="M930.377 456.316a1.134 1.134 0 01-.973-.112l-8.987-5.186c-.321-.186-.409-.439-.2-.562l5.955-3.44a1.135 1.135 0 01.975.112l8.987 5.186c.321.185.407.439.194.562z"/><path data-name="Path 5256" d="M942.75 463.457a1.131 1.131 0 01-.974-.113l-8.986-5.185c-.325-.188-.412-.441-.2-.564l5.954-3.44a1.137 1.137 0 01.979.114l8.986 5.185c.323.186.409.441.195.563z"/><path data-name="Path 5257" d="M955.124 470.599a1.146 1.146 0 01-.98-.117l-8.983-5.183c-.321-.185-.409-.439-.2-.561l5.955-3.44a1.134 1.134 0 01.975.112l8.983 5.184c.325.188.415.443.2.567z"/><path data-name="Path 5258" d="M967.499 477.732a1.136 1.136 0 01-.976-.114l-8.984-5.184c-.323-.187-.412-.442-.2-.564l5.955-3.44a1.141 1.141 0 01.978.114l8.984 5.184c.323.187.411.441.2.564z"/><path data-name="Path 5259" d="M995.367 493.816a1.136 1.136 0 01-.976-.114l-24.481-14.128c-.323-.187-.411-.44-.2-.563l5.954-3.44a1.139 1.139 0 01.978.113l24.481 14.128c.323.187.411.44.2.564z"/><path data-name="Path 5260" d="M919.885 440.792a1.106 1.106 0 01-.97-.112l-8.988-5.186c-.322-.187-.412-.437-.2-.561l5.956-3.441a1.132 1.132 0 01.971.114l8.988 5.187c.324.187.407.438.2.56z"/><path data-name="Path 5261" d="M932.26 447.935a1.128 1.128 0 01-.973-.113l-8.99-5.188c-.32-.185-.411-.436-.195-.56l5.956-3.44a1.13 1.13 0 01.969.112l8.99 5.188c.321.185.41.439.2.56z"/><path data-name="Path 5262" d="M944.632 455.075a1.13 1.13 0 01-.975-.115l-8.985-5.185c-.318-.184-.417-.439-.2-.563l5.956-3.441a1.151 1.151 0 01.976.117l8.985 5.184c.322.186.411.44.2.562z"/><path data-name="Path 5263" d="M957.005 462.213a1.127 1.127 0 01-.974-.113l-8.983-5.185c-.324-.187-.415-.438-.2-.562l5.956-3.441a1.134 1.134 0 01.974.116l8.983 5.184c.322.186.41.44.2.561z"/><path data-name="Path 5264" d="M969.382 469.351a1.13 1.13 0 01-.974-.113l-8.989-5.188c-.323-.187-.412-.437-.2-.561l5.956-3.44a1.129 1.129 0 01.971.113l8.989 5.188c.321.185.411.44.2.561z"/><path data-name="Path 5265" d="M981.751 476.489a1.123 1.123 0 01-.972-.113l-8.982-5.184c-.326-.188-.418-.44-.2-.564l5.956-3.44a1.138 1.138 0 01.977.117l8.982 5.183c.322.186.409.439.2.56z"/><path data-name="Path 5266" d="M994.124 483.627a1.123 1.123 0 01-.972-.113l-8.99-5.187c-.321-.186-.41-.435-.194-.56l5.956-3.441a1.127 1.127 0 01.968.112l8.99 5.188c.32.185.409.439.2.561z"/><path data-name="Path 5267" d="M925.158 434.366a1.129 1.129 0 01-.979-.112l-8.986-5.186c-.319-.184-.408-.437-.19-.562l5.955-3.44a1.133 1.133 0 01.969.112l8.986 5.186c.324.187.411.44.2.562z"/><path data-name="Path 5268" d="M937.531 441.505a1.126 1.126 0 01-.975-.111l-8.986-5.185c-.323-.187-.412-.441-.2-.565l5.955-3.441a1.139 1.139 0 01.975.116l8.985 5.185c.32.185.409.439.2.561z"/><path data-name="Path 5269" d="M949.903 448.646a1.132 1.132 0 01-.98-.113l-8.984-5.185c-.321-.185-.409-.438-.192-.563l5.955-3.44a1.135 1.135 0 01.971.113l8.984 5.185c.326.188.413.441.2.563z"/><path data-name="Path 5270" d="M962.275 455.79a1.123 1.123 0 01-.976-.111l-8.986-5.186c-.324-.187-.412-.44-.2-.565l5.955-3.44a1.138 1.138 0 01.975.115l8.986 5.186c.324.187.409.438.2.56z"/><path data-name="Path 5271" d="M974.647 462.92a1.126 1.126 0 01-.974-.109l-8.986-5.186c-.325-.187-.411-.439-.194-.564l5.955-3.44a1.128 1.128 0 01.973.114l8.986 5.186c.319.184.407.437.195.559z"/><path data-name="Path 5272" d="M987.019 470.062a1.134 1.134 0 01-.982-.114l-8.985-5.185c-.318-.184-.41-.438-.192-.563l5.955-3.44a1.138 1.138 0 01.971.113l8.985 5.185c.326.188.414.442.2.564z"/><path data-name="Path 5273" d="M999.392 477.201a1.129 1.129 0 01-.976-.111l-8.987-5.186c-.323-.187-.411-.439-.194-.564l5.955-3.44a1.13 1.13 0 01.973.114l8.986 5.186c.322.185.41.439.2.56z"/><path data-name="Path 5274" d="M900.47 420.126a1.134 1.134 0 01-.981-.112l-15.235-8.797c-.324-.187-.412-.44-.2-.565l5.955-3.44a1.135 1.135 0 01.975.115l15.236 8.793c.324.186.412.44.2.562z"/><path data-name="Path 5275" d="M1019.965 479.605a1.135 1.135 0 01-.978-.113l-15.236-8.793c-.319-.184-.411-.44-.2-.563l5.952-3.439a1.139 1.139 0 01.976.112l15.237 8.793c.323.187.413.44.2.564z"/><path data-name="Path 5276" d="M895.196 426.552a1.121 1.121 0 01-.975-.114l-18.163-10.482c-.324-.187-.416-.439-.2-.563l5.956-3.441a1.134 1.134 0 01.974.116l18.163 10.482c.327.188.411.441.2.562z"/><path data-name="Path 5277" d="M880.945 427.796a1.135 1.135 0 01-.977-.115l-12.111-6.988c-.324-.187-.411-.44-.2-.563l5.954-3.44a1.135 1.135 0 01.979.113l12.111 6.988c.323.187.411.442.2.565z"/><path data-name="Path 5278" d="M914.788 418.921a1.133 1.133 0 01-.979-.114l-8.98-5.182c-.323-.187-.412-.441-.2-.565l5.953-3.438a1.132 1.132 0 01.978.113l8.979 5.182c.328.189.415.441.2.565z"/><path data-name="Path 5279" d="M927.106 426.024a1.138 1.138 0 01-.979-.114l-8.986-5.186c-.321-.186-.412-.44-.2-.563l5.953-3.439a1.135 1.135 0 01.978.113l8.986 5.185c.323.188.414.44.2.565z"/><path data-name="Path 5280" d="M939.473 433.16a1.12 1.12 0 01-.974-.112l-8.985-5.185c-.321-.186-.41-.439-.2-.563l5.953-3.438a1.124 1.124 0 01.975.112l8.986 5.186c.325.187.41.437.194.561z"/><path data-name="Path 5281" d="M951.851 440.303a1.136 1.136 0 01-.978-.114l-8.98-5.182c-.325-.188-.413-.441-.2-.565l5.953-3.438a1.129 1.129 0 01.979.114l8.98 5.182c.323.186.413.44.2.564z"/><path data-name="Path 5282" d="M964.219 447.441a1.122 1.122 0 01-.973-.112l-8.984-5.184c-.326-.188-.413-.441-.2-.565l5.953-3.439a1.132 1.132 0 01.979.114l8.983 5.184c.326.188.41.438.193.562z"/><path data-name="Path 5283" d="M976.598 454.578a1.129 1.129 0 01-.974-.112l-8.99-5.188c-.321-.185-.408-.438-.193-.561l5.953-3.439a1.123 1.123 0 01.973.112l8.99 5.187c.32.185.41.438.194.562z"/><path data-name="Path 5284" d="M988.97 461.719a1.133 1.133 0 01-.978-.113l-8.985-5.185c-.324-.187-.414-.441-.2-.566l5.953-3.438a1.134 1.134 0 01.979.114l8.985 5.185c.324.187.413.44.2.564z"/><path data-name="Path 5285" d="M1001.34 468.856a1.124 1.124 0 01-.972-.11l-8.991-5.19c-.32-.184-.407-.437-.191-.56l5.952-3.439a1.124 1.124 0 01.972.111l8.991 5.189c.321.186.407.437.192.561z"/><path data-name="Path 5286" d="M1008.534 475.153a1.385 1.385 0 00-.526-.172.734.734 0 00-.443.06l-5.955 3.44a.205.205 0 00-.108.259.661.661 0 00.3.3l2.346 1.354-7.808 4.511a.2.2 0 00-.1.259.645.645 0 00.3.3l6.053 3.493a1.381 1.381 0 00.529.175.739.739 0 00.449-.058l14.155-8.178a.2.2 0 00.1-.257.636.636 0 00-.3-.307z"/><path data-name="Path 5287" d="M879.336 424.895a.139.139 0 01-.094-.026l-6.869-3.964c-.037-.022-.058-.046-.045-.054l.434-.25a.142.142 0 01.094.025l6.868 3.965c.038.022.059.046.046.053z"/></g></g></g></g><g data-name="Group 2069"><path data-name="Path 5288" d="M843.886 627.114L807.014 647.7a2.606 2.606 0 00-1.244 3.543 2.866 2.866 0 003.839.706l39.3-21.934z" fill="#f0f7ff" opacity=".4" style="mix-blend-mode:multiply;isolation:isolate"/><path data-name="Path 5289" d="M820.084 613.371l-5.383-3.108-36.418 20.74a2.606 2.606 0 00-1.245 3.542 2.866 2.866 0 003.84.706z" fill="#f0f7ff" opacity=".4" style="mix-blend-mode:multiply;isolation:isolate"/><path data-name="Path 5290" d="M843.806 513.236l-.238-.136c-.839-.478-1.812.2-2.163 1.515l-4.407 16.482-26.268-14.976 4.408-16.482a3 3 0 00-.888-3.253l-.238-.136c-.839-.478-1.813.2-2.163 1.515l-4.767 17.826-.464 1.735-5.708 21.345-.342 1.278-5.83 21.8-.024.086-6.374 23.837-.238.891-5.708 21.345-.465 1.735-5.968 22.338a3 3 0 00.888 3.253l.238.136c.839.479 1.812-.2 2.162-1.514l5.612-20.991 26.267 14.977-5.613 20.992a3 3 0 00.888 3.253l.238.136c.839.478 1.812-.2 2.163-1.515l35.893-134.216a3 3 0 00-.891-3.256zm-7.991 22.284l-4.99 18.657-26.264-14.976 4.989-18.656zm-11.162 41.737l-26.267-14.976 4.989-18.656 26.267 14.975zm-6.172 23.08l-26.267-14.972 4.989-18.657 26.267 14.977zm-32.439 8.1l4.989-18.657 26.267 14.985-4.989 18.656z" fill="#00adee"/></g><path data-name="Path 5291" d="M1115.576 674.299l-128.819-74.374 128.015-73.909 130.085 74.22z" fill="#edf7ff"/><path data-name="Path 5292" d="M1144.945 698.3l.121 72.365 129.16-73.994v-72.433z" transform="translate(-29.369 -24.002)" fill="url(#c)"/><path data-name="Path 5293" d="M986.946 599.919v72.4l128.819 74.374v-72.4z" fill="#cce9ff"/><g data-name="Group 2071"><path data-name="Path 5294" d="M870.605 389.646l-63.727 36.79a5.31 5.31 0 01-7.965-4.6V311.201a7.715 7.715 0 013.858-6.682l65.512-37.823a3.6 3.6 0 015.4 3.119v114.494a6.159 6.159 0 01-3.078 5.337z" fill="#18bdf7"/><g data-name="Group 2070"><path data-name="Path 5295" d="M814.798 372.7c-.284 13.759 9.2 19.568 21.181 12.976s21.925-23.089 22.209-36.848-9.2-19.569-21.181-12.976-21.925 23.089-22.209 36.848zm21.4 2.359c-6.876 3.783-12.318.449-12.155-7.446s5.868-17.362 12.745-21.145 12.318-.449 12.155 7.447-5.87 17.362-12.745 21.144z" fill="#1b2837"/><path data-name="Path 5296" d="M815.694 365.726c2.725-11.957 11.3-24.37 21.31-29.874 7.332-4.035 13.725-3.417 17.52.817l-2.637 3.438.036.037-5.153 6.717c-2.186-2.362-5.822-2.684-9.985-.394-5.691 3.132-10.577 10.156-12.186 16.962z" fill="#eb9e29"/><path data-name="Path 5297" d="M845.539 365.251a24.912 24.912 0 003.4-11.337c.068-3.335-.865-5.852-2.481-7.366l1.749-2.326c-.023-.023-.045-.048-.068-.07l5.595-8.279c.149.134.292.277.434.422l.049.05c.017.016.044.043.066.067.061.062.12.127.176.2 2.445 2.683 3.837 6.839 3.726 12.223-.13 6.33-2.311 13.24-5.789 19.5z" fill="#fff"/></g><path data-name="Path 5298" d="M848.495 314.177l7.735-4.465a5.464 5.464 0 002.281-4.358c0-1.679-1.022-2.451-2.281-1.724l-7.735 4.465a5.463 5.463 0 00-2.28 4.358c0 1.679 1.021 2.451 2.28 1.724z" fill="#fff"/><path data-name="Path 5299" d="M848.495 300.556l7.735-4.466a5.462 5.462 0 002.281-4.357c0-1.68-1.022-2.451-2.281-1.724l-7.735 4.465a5.461 5.461 0 00-2.28 4.357c0 1.68 1.021 2.452 2.28 1.725z" fill="#1b2837"/><path data-name="Path 5300" d="M844.345 302.953l7.734-4.466a5.461 5.461 0 002.28-4.357c0-1.68-1.021-2.451-2.28-1.724l-7.734 4.465a5.463 5.463 0 00-2.281 4.357c0 1.683 1.022 2.452 2.281 1.725z" fill="#1b2837"/><path data-name="Path 5301" d="M832.486 323.495l7.734-4.466a5.461 5.461 0 002.281-4.358c0-1.68-1.021-2.451-2.281-1.724l-7.734 4.465a5.462 5.462 0 00-2.281 4.357c0 1.681 1.018 2.452 2.281 1.726z" fill="#fff"/><path data-name="Path 5302" d="M816.477 332.763l7.734-4.466a5.46 5.46 0 002.281-4.357c0-1.68-1.022-2.451-2.281-1.724l-7.734 4.465a5.462 5.462 0 00-2.28 4.357c-.002 1.679 1.021 2.452 2.28 1.725z" fill="#fff"/></g><g data-name="Group 2072"><path data-name="Path 5303" d="M1000.715 348.883l-1.868 80.261 39.454 22.977 1.868-80.261z" fill="#fff" stroke="#b3ddff" stroke-miterlimit="10" stroke-width=".757"/><path data-name="Path 5304" d="M1031.518 387.532l-17.748-10.328.074-3.175 17.748 10.328z" fill="#18bdf7"/><path data-name="Path 5305" d="M1031.183 401.93l-17.748-10.328.074-3.176 17.748 10.328z" fill="#18bdf7"/><path data-name="Path 5306" d="M1030.848 416.33l-17.748-10.325.074-3.175 17.748 10.328z" fill="#18bdf7"/><path data-name="Path 5307" d="M1009.119 376.265l-3.579-2.083a2.267 2.267 0 01-.934-1.86l.087-3.777c.017-.716.462-1.046 1-.736l3.578 2.083a2.265 2.265 0 01.936 1.86l-.088 3.777c-.021.717-.463 1.047-1 .736z" fill="#1b2837"/><path data-name="Path 5308" d="M1008.76 391.685l-3.579-2.083a2.266 2.266 0 01-.934-1.86l.087-3.777c.017-.716.462-1.046 1-.735l3.579 2.082a2.265 2.265 0 01.935 1.86l-.087 3.777c-.022.717-.468 1.047-1.001.736z" fill="#1b2837"/><path data-name="Path 5309" d="M1008.404 407.106l-3.578-2.083a2.265 2.265 0 01-.935-1.86l.087-3.777c.017-.716.463-1.045 1-.735l3.579 2.082a2.265 2.265 0 01.935 1.86l-.087 3.777c-.025.716-.471 1.046-1.001.736z" fill="#1b2837"/><path data-name="Path 5310" d="M1018.27 436.661l-20.761-12.082c-2.832-1.648-5.075-6.109-4.986-9.914l.025-1.114c.089-3.805 2.478-5.57 5.309-3.923l20.762 12.082c2.832 1.648 5.076 6.108 4.986 9.914l-.026 1.114c-.088 3.805-2.477 5.57-5.309 3.923z" fill="#eb9e29"/><path data-name="Path 5311" d="M1016.509 428.678l-18.02-10.485a1.571 1.571 0 01-.647-1.287c.011-.494.322-.724.689-.51l18.018 10.486a1.575 1.575 0 01.648 1.287c-.012.494-.322.724-.688.509z" fill="#fff"/></g><g data-name="Group 2074"><path data-name="Path 5312" d="M991.373 348.278l.028-1.23-79.039-45.931-1.627 72.688 79.039 45.931z" fill="#fff"/><g data-name="Group 2073" fill="none" stroke="#b3ddff" stroke-miterlimit="10"><path data-name="Path 5313" d="M982.834 403.398l-66.705-38.764 1.207-53.956 66.705 38.764z" stroke-width=".757"/><path data-name="Line 56" stroke-width=".757" d="M939.006 323.271l-1.207 53.956"/><path data-name="Line 57" stroke-width=".757" d="M961.524 336.357l-1.207 53.956"/><path data-name="Line 58" stroke-width=".539" d="M917.13 319.904l66.705 38.764"/><path data-name="Line 59" stroke-width=".539" d="M916.929 328.897l66.705 38.764"/><path data-name="Line 60" stroke-width=".539" d="M916.727 337.89l66.705 38.764"/><path data-name="Line 61" stroke-width=".539" d="M983.231 385.646l-66.705-38.764"/><path data-name="Line 62" stroke-width=".539" d="M983.03 394.639l-66.705-38.764"/></g><path data-name="Path 5314" d="M934.759 380.806l-2.713-1.577a1.53 1.53 0 01-.634-1.255c.011-.484.312-.706.672-.5l2.714 1.578a1.529 1.529 0 01.633 1.255c-.01.49-.311.713-.672.499z" fill="#1b2837"/><path data-name="Path 5315" d="M957.173 394.032l-2.714-1.578a1.53 1.53 0 01-.633-1.255c.011-.484.312-.706.672-.5l2.714 1.577a1.53 1.53 0 01.633 1.255c-.01.491-.311.71-.672.501z" fill="#1b2837"/><path data-name="Path 5316" d="M979.841 407.737l-2.714-1.576a1.533 1.533 0 01-.634-1.256c.011-.484.312-.706.673-.5l2.714 1.577a1.533 1.533 0 01.634 1.256c-.011.487-.312.709-.673.499z" fill="#1b2837"/><path data-name="Path 5317" d="M983.397 378.215c-8.81-4.143-10.824 9.431-15.037 7.432s-3.375-16.716-7.963-19.382-3.93 12.594-8.317 10.39-1.528-19.742-8.957-23.425c-9.217-4.569-2.845 18.786-11.223 15.415-6.766-2.722-.786-9.976-7.434-14.139-3.417-2.14-8.222 4.936-8.222 4.936l-.116 5.194 66.705 38.764z" fill="#18bdf7"/></g><g data-name="Group 2076"><g data-name="Group 2075" fill="none" stroke="#b3ddff" stroke-miterlimit="10" stroke-width=".945"><path data-name="Path 5319" d="M758.284 379.671l23.6-13.315-.116-26.75-23.6 13.315z"/><path data-name="Path 5320" d="M734.68 392.986l23.6-13.315-.116-26.749-23.6 13.315z"/><path data-name="Path 5321" d="M711.076 406.301l23.6-13.315-.117-26.75-23.6 13.315z"/><path data-name="Path 5322" d="M687.472 419.617l23.6-13.315-.116-26.749-23.6 13.315z"/><path data-name="Path 5323" d="M758.401 406.421l23.6-13.315-.116-26.75-23.6 13.315z"/><path data-name="Path 5324" d="M734.796 419.736l23.6-13.315-.117-26.75-23.6 13.315z"/><path data-name="Path 5325" d="M687.589 446.366l23.6-13.315-.116-26.75-23.6 13.315z"/><path data-name="Line 63" d="M782.004 393.106l.116 26.75"/><path data-name="Path 5326" d="M734.913 446.486l23.6-13.315-.116-26.75-23.6 13.315z"/><path data-name="Path 5327" d="M711.31 459.8l23.6-13.315-.116-26.749-23.6 13.315z"/><path data-name="Path 5328" d="M687.705 473.115l23.6-13.315-.116-26.75-23.6 13.315z"/><path data-name="Line 64" d="M782.121 419.856l.117 26.749"/><path data-name="Path 5329" d="M758.633 459.92l23.6-13.315-.114-26.749-23.6 13.31z"/><path data-name="Path 5330" d="M735.03 473.235l23.6-13.315-.113-26.745-23.6 13.315z"/><path data-name="Path 5331" d="M711.426 486.551l23.6-13.315-.116-26.75-23.6 13.315z"/><path data-name="Path 5332" d="M687.822 499.865l23.6-13.315-.116-26.75-23.6 13.315z"/></g></g><path data-name="Path 5333" d="M693.892 492.207l14.132-52.221L731 437.034l7.437-38.491 19.963.334 13.333-31.519" fill="none" stroke="#eb9e29" stroke-linecap="round" stroke-linejoin="round" stroke-width="2"/><path data-name="Path 5334" d="M766.64 368.959l5.649-2.429 1.156 5.016" fill="none" stroke="#eb9e29" stroke-linecap="round" stroke-linejoin="round" stroke-width="2"/><path data-name="Path 5335" d="M1148.204 615.508l-45.065-25.512-5.613-57.515a4.815 4.815 0 014.3-.187l95.954 54.321c1.111.629.991 1.741-.263 2.473l-45.011 26.234a4.82 4.82 0 01-4.302.186z" fill="#f0f7ff" opacity=".4" style="mix-blend-mode:multiply;isolation:isolate"/><g data-name="Group 2080"><g data-name="Group 2077"><path data-name="Path 5336" d="M1151.077 614.901l-52.5-32.242c-3.165-1.828-5.732-6.73-5.732-10.95V461.248c0-4.221 2.566-6.161 5.732-4.333l52.841 30.508c3.165 1.827 5.731 6.73 5.731 10.95v109.939c0 2.777-.865 3.287-2.612 4.3z" fill="#b6d4ed"/><path data-name="Path 5337" d="M1117.773 508.722s-24.948 67.1-24.948 62.878l-2.423-112.944 4.614-2.263a3.771 3.771 0 013.539.412l52.841 30.508a11.241 11.241 0 013.98 4.439z" fill="#dbefff"/><path data-name="Path 5338" d="M1146.567 615.315l-52.708-30.507c-3.165-1.828-5.6-6.731-5.6-10.951V463.396c0-4.221 2.5-6.16 5.664-4.332l52.682 30.507c3.165 1.828 5.572 6.731 5.572 10.95v110.462c-.004 4.22-2.445 6.16-5.61 4.332z" fill="#1b2837"/><path data-name="Path 5339" d="M1154.431 508.624v6.309c0 .44.262.643.591.453l-.079-.053a1.326 1.326 0 00.427-1.144v-6.309c0-.44-.1-.643-.431-.453v.053a1.371 1.371 0 00-.508 1.144z" fill="#2c4482"/><path data-name="Path 5340" d="M1154.431 519.673v6.309c0 .439.262.643.591.453l-.079-.054a1.325 1.325 0 00.427-1.144v-6.31c0-.439-.1-.643-.431-.453v.054a1.371 1.371 0 00-.508 1.145z" fill="#2c4482"/><path data-name="Path 5341" d="M1145.106 596.438l-51.394-29.672a1.729 1.729 0 01-.864-1.5v-93.28a1.728 1.728 0 012.592-1.5l51.394 29.672a1.729 1.729 0 01.863 1.5v93.283a1.727 1.727 0 01-2.591 1.497z" fill="#18bdf7"/><path data-name="Path 5342" d="M1129.462 486.185l-16.3-9.41a2.5 2.5 0 01-1.041-1.987c0-.762.468-1.116 1.041-.785l16.3 9.41a2.5 2.5 0 011.039 1.986c.002.762-.466 1.116-1.039.786z" fill="#fff"/></g><g data-name="Group 2079"><path data-name="Line 65" fill="none" stroke="#fff" stroke-linecap="round" stroke-linejoin="round" stroke-width=".584" d="M1096.879 562.512l43.284 25.492"/><path data-name="Path 5343" d="M1109.402 565.021l-12.519-7.23V535.28l12.523 7.23z" fill="#1b2837"/><path data-name="Path 5344" d="M1124.749 573.881l-12.523-7.23v-14.722l12.522 7.23z" fill="#fff"/><path data-name="Path 5345" d="M1140.567 583.014l-12.523-7.23v-29.513l12.523 7.23z" fill="#eb9e29"/><g data-name="Group 2078" fill="none" stroke="#fff" stroke-miterlimit="10" stroke-width=".664"><path data-name="Line 66" d="M1098.919 481.58l40.146 23.179"/><path data-name="Line 67" d="M1099.169 503.531l40.146 23.179"/><path data-name="Line 68" d="M1099.42 525.482l40.146 23.179"/><path data-name="Path 5347" d="M1119.246 515.12l-20.073-11.589-.25-21.951 20.073 11.589z"/><path data-name="Path 5348" d="M1139.316 526.71l-20.073-11.589-.25-21.951 20.073 11.589z"/><path data-name="Path 5349" d="M1119.493 537.068l-20.073-11.589-.25-21.951 20.073 11.589z"/><path data-name="Path 5350" d="M1139.566 548.66l-20.073-11.589-.25-21.951 20.073 11.589z"/><path data-name="Line 69" d="M1119.493 537.071l-20.073-11.589"/><path data-name="Line 70" d="M1119.493 537.071l20.073 11.589"/></g><path data-name="Path 5351" d="M1100.341 524.282l10.371-5.472 11.728-1.092 13.872-7.778" fill="none" stroke="#1b2837" stroke-linecap="round" stroke-linejoin="round"/><path data-name="Path 5352" d="M1134.004 508.749l2.9.9-1.449 2.921" fill="none" stroke="#1b2837" stroke-linecap="round" stroke-linejoin="round"/></g></g><ellipse data-name="Ellipse 3080" cx="1.278" cy="2.211" rx="1.278" ry="2.211" transform="rotate(-30.34 1092.242 -1639.687)" fill="#fff"/><g data-name="Group 2081"><path data-name="Path 5353" d="M920.524 706.008c22.274-12.86 22.16-33.774-.253-46.715l-10.522 6.075c-21.93-7.369-50.422-5.681-69.1 5.105-22.274 12.86-22.16 33.774.253 46.715s58.64 13.006 80.913.146l-40.584-23.43 9.165-5.291z" fill="#f0f7ff" opacity=".4" style="mix-blend-mode:multiply;isolation:isolate"/><path data-name="Path 5354" d="M910.698 711.691c-22.274 12.86-58.5 12.794-80.913-.146s-22.527-33.855-.253-46.715 58.5-12.794 80.914.146l-40.33 23.284z" fill="#15a2d4"/><path data-name="Path 5355" d="M870.043 688.301l.072-.042 40.584 23.431c-9.556 5.516-21.447 8.934-34.6 9.444l-1.184.06-.382-8.058c-1.575-8.063-3.841-20.008-4.49-24.835z" fill="#bad0e6"/><path data-name="Path 5356" d="M910.445 703.279l.253 8.412-15.752-6.956z" fill="#bad0e6"/><path data-name="Path 5357" d="M910.572 693.904s22.437-11.664 16.631-31.241-16.631 24.365-16.631 24.365z" fill="#eb9e29"/><path data-name="Path 5358" d="M829.781 711.546c-22.413-12.94-22.527-33.855-.253-46.715l40.584 23.43z" fill="#03030a"/><path data-name="Path 5359" d="M910.445 664.977c-22.413-12.94-58.64-13.006-80.914-.146l40.584 23.43z" fill="#b1cfe6"/><path data-name="Path 5360" d="M870.042 688.304l.073-.042-40.584-23.43c-5.53 3.192-13.82 9.986-16.631 14.95v7.941c18.481.865 43.989-.009 57.142.581z" fill="#03030a"/><path data-name="Path 5361" d="M910.698 703.616c-22.274 12.86-58.5 12.794-80.913-.146s-22.527-33.855-.253-46.715 58.5-12.794 80.914.146l-40.33 23.284z" fill="#18bdf7"/><path data-name="Path 5362" d="M829.781 703.471c-22.413-12.94-22.527-33.855-.253-46.715l40.584 23.43z" fill="#0d0c33"/><path data-name="Path 5363" d="M910.445 656.902c-22.413-12.94-58.64-13.006-80.914-.146l40.584 23.43z" fill="#dbefff"/><path data-name="Path 5364" d="M910.319 640.312c22.413 12.94 22.527 33.856.253 46.716l-40.584-23.431z" fill="#faa92d"/><path data-name="Path 5365" d="M870.042 680.229l.073-.042-40.584-23.43c-10.058 5.807-15.55 13.257-16.486 20.873 18.48.866 43.844 2.009 56.997 2.599z" fill="#1b2837"/><path data-name="Path 5366" d="M870.042 680.228l.073-.042 40.583 23.431c-10.059 5.807-22.963 8.978-36.155 9.518a5670.2 5670.2 0 01-4.501-32.907z" fill="#fff"/><path data-name="Path 5367" d="M869.988 663.597v5.834l40.583 24.472v-6.876z" fill="#eb9e29"/><path data-name="Path 5368" d="M829.785 711.546v-8.075a59.9 59.9 0 009.961 4.609z" fill="#15a2d4"/></g><g data-name="Group 2083"><path data-name="Path 5369" d="M1095.313 486.247l-36.067-20.823v35.788l36.067 20.823z" fill="#fff" stroke="#b3ddff" stroke-miterlimit="10" stroke-width=".679"/><g data-name="Group 2082"><path data-name="Path 5370" d="M1071.914 504.206l-7.234-4.2.149-11.349 7.233 4.2z" fill="#eb9e29"/><path data-name="Path 5371" d="M1080.779 509.349l-7.233-4.2.1-7.421 7.233 4.2z" fill="#18bdf7"/><path data-name="Path 5372" d="M1089.917 514.65l-7.233-4.2.2-14.879 7.234 4.2z" fill="#0d0c33"/><path data-name="Path 5373" d="M1071.175 486.835l-5.716-3.29a2.422 2.422 0 01-1.007-1.772c-.042-.681.342-1 .854-.7l5.716 3.289a2.417 2.417 0 011.006 1.773c.042.677-.341.994-.853.7z" fill="#18bdf7"/><path data-name="Path 5374" d="M1080.756 492.537l-5.716-3.29a2.421 2.421 0 01-1.007-1.773c-.042-.68.342-1 .854-.7l5.716 3.29a2.421 2.421 0 011.006 1.773c.042.677-.341.993-.853.7z" fill="#18bdf7"/><path data-name="Path 5375" d="M1086.352 484.869l-20.459-11.87c-.669-.389-1.309-.166-1.423.495a2.047 2.047 0 001.01 1.908l20.459 11.87c.669.388 1.309.165 1.424-.5a2.047 2.047 0 00-1.011-1.903z" fill="#1b2837"/></g></g><g data-name="Group 2092"><path data-name="Path 5376" d="M1036.203 793.85c-6.89 4.584-18.182 5.289-25.222 1.575s-7.159-10.441-.268-15.026 18.183-5.289 25.221-1.575 7.16 10.442.269 15.026z" fill="#dbefff" opacity=".071"/><g data-name="Group 2091"><path data-name="Path 5377" d="M1039.627 658.413a2.266 2.266 0 011.315-3.067c1.539-.545 3.456-.591 4.294 1.957.952 2.9 3.182 8.434 4.692 12.108a1.252 1.252 0 01-2.043 1.361 6.5 6.5 0 01-1.832-3.386s.841 2.364 1.723 4.343a1.251 1.251 0 01-1.59 1.682c-1.8-.711-3.79-2.142-3.833-4.992-.056-3.505-1.671-7.655-2.726-10.006z" fill="#1b2837"/><path data-name="Path 5378" d="M1037.509 658.891c.786 1.205 2.03 1.786 2.78 1.3s.722-1.861-.064-3.067-2.029-1.785-2.78-1.3-.72 1.86.064 3.067z" fill="#eb9e29"/><path data-name="Path 5379" d="M1022.735 700.467a4.513 4.513 0 001.438.546c1.2.169 2.492-.556 3.687-1.257a.978.978 0 00.3-.24.871.871 0 00.067-.766c-.431-1.465-1.128-1.429-2.136-2.272-.455-.381-.859-.83-1.309-1.218a13.582 13.582 0 00-2.313-1.505c-.973-.544-4.525-2.406-5.25.258a2.749 2.749 0 00.355 2.655 7.3 7.3 0 001.951 1.955 28.64 28.64 0 003.21 1.844z" fill="#ffc2b0"/><path data-name="Path 5380" d="M1027.78 697.898a11.236 11.236 0 00-1.029-2.384 3.759 3.759 0 00-1.759-1.448c-1.4-.56-3.739-1.356-4.515-.816-1 .694.021 1.859.647 2.575a12.86 12.86 0 005.031 3.06.628.628 0 00.69-.115c.075.151-.554-.258-.491-.1.383.97 1.806.189 1.426-.772z" fill="#ffc2b0"/><path data-name="Path 5381" d="M1027.43 697.415l1.651 1.734-3.206 3.763-1.892-1.924z" fill="#d0e7f4"/><path data-name="Path 5382" d="M1015.936 781.583l7.492-5.71 4.369-.745c1.443 5.686.789 5-.869 6.453l-6.52 4.059c-3.432 1.642-4.521 1.849-6.522.973-1.21-1.284-.065-2.955 2.05-5.03z" fill="#20bdf7"/><path data-name="Path 5383" d="M1024.324 787.017l7.491-5.71 4.369-.745c1.445 5.686.79 5-.869 6.453l-6.519 4.06c-3.432 1.642-4.523 1.849-6.522.974-1.21-1.286-.067-2.957 2.05-5.032z" fill="#20bdf7"/><path data-name="Path 5384" d="M1037.803 681.032a5.482 5.482 0 00-1.716-1.272 19.1 19.1 0 00-9.677-2.526" fill="none" stroke="#fff" stroke-miterlimit="10" stroke-width=".643"/><g data-name="Group 2084"><path data-name="Path 5385" d="M1022.777 680.474a190.766 190.766 0 01-4.12 28.747c-1.037 4.535-8.02 2.645-6.982-1.9a177.648 177.648 0 003.869-26.822c.338-4.611 7.573-4.68 7.232-.029z" fill="#18bdf7"/></g><g data-name="Group 2085"><path data-name="Path 5386" d="M1024.313 716.987a320.129 320.129 0 004.051 58.477c.772 4.552-6.2 6.509-6.973 1.922a330.5 330.5 0 01-4.31-60.4c.066-4.65 7.3-4.663 7.232 0z" fill="#ffc2b0"/></g><g data-name="Group 2086"><path data-name="Path 5387" d="M1033.771 722.613c1.128 19.668 2.877 39.349 2.91 59.063.008 4.654-7.224 4.66-7.232 0-.034-19.713-1.782-39.394-2.91-59.062-.267-4.65 6.966-4.635 7.232 0z" fill="#ffc2b0"/></g><path data-name="Path 5388" d="M1040.819 724.854c-.733 10.162-7.233 11.188-13.794 7.4s-10.21-12.409-10.209-19.984c0 0 3.649-11.236 10.209-7.449s14.646 8.233 13.794 20.033z" fill="#18bdf7"/><path data-name="Path 5389" d="M1018.458 682.86s-4.344 6.827-3.849 10.946c.316 2.621 2.206 5.568 2.482 6.406 2.261 6.867 1.012 8.946 1.256 10.846 0 0 1.506 6.531 17.629.358l6.769-19.893z" fill="#18bdf7"/><path data-name="Path 5390" d="M1041.554 695.881a2.141 2.141 0 00.74-1.336c.411-3.547 2.36-5.158-1.5-11.229-.62-.975-9.06-5.349-15.4-6.5a6.761 6.761 0 00-7.355 4.023 35.458 35.458 0 00-1.428 4.995c-.3 6.512 2.583-2.039 3.041 1.558-.015-.087-.038-.175-.05-.261 0 0 .786 6.075 1.382 10.777.368 2.935.63 5.057.654 5.354v.037l11 8.673 5.79-10.454z" fill="#18bdf7"/><path data-name="Path 5391" d="M1025.787 676.733s-5.5 5.679-.73 9.7 12.893-4.971 12.893-4.971c-4.266-2.665-8.364-4.482-12.163-4.729z" fill="#ffc2b0"/><path data-name="Path 5392" d="M1016.815 712.266l-3.9 26.789a1.56 1.56 0 00.331 1.037c1.5 1.989 9.067 7.194 25.606 4.269 1.906-.338 2.22-.427 2.214-1.681l-.962-21.325-9.736-.1z" fill="#18bdf7"/><path data-name="Path 5393" d="M1028.275 680.01l-2.627-10.126 6.345 2.01 2.134 8.269c.458 1.347-3.954 5.019-5.852-.153z" fill="#ffc2b0"/><path data-name="Path 5394" d="M1024.672 677.515c.021.6-1.514 6.374-1.16 7.083a3.406 3.406 0 001.046 1.166 6.332 6.332 0 006.942.3c.9-.555 3.4-2.115 3.772-2.329.958-.548 1.535-1.576 2.383-2.281" fill="none" stroke="#fff" stroke-miterlimit="10" stroke-width=".643"/><path data-name="Rectangle 381" d="M1030.597 656.44l1.175.36a5.898 5.898 0 013.918 7.363l-2.716 8.89a5.898 5.898 0 01-7.363 3.918l-1.175-.359a5.898 5.898 0 01-3.917-7.363l2.715-8.89a5.898 5.898 0 017.363-3.918z" fill="#ffc2b0"/><path data-name="Path 5395" d="M1027.179 677.244a8.731 8.731 0 003.914-.453 7.243 7.243 0 01-3.757 2.106z" fill="#ea8a6c"/><path data-name="Path 5396" d="M1029.907 659.489s1.651 8.028 3.927 10.458l-.747 1.456a5.424 5.424 0 00-.123 4.7l.279.62s14.942-8.27 5.477-18.656c-6.406-7.029-16.72-3.391-16.716 4.111z" fill="#1b2837"/><path data-name="Path 5397" d="M1033.851 673.968a1.323 1.323 0 01-1.956-1.269 3.177 3.177 0 011.938-2.752 1.324 1.324 0 011.956 1.269 3.176 3.176 0 01-1.938 2.752z" fill="#ffc2b0"/><g data-name="Group 2088"><path data-name="Path 5398" d="M1007.707 715.227l2.431 1.55c1.188.757 2.592.7 3.12-.127l.37-.579c.53-.829-.01-2.126-1.2-2.884l-2.431-1.55c-1.187-.757-2.592-.7-3.12.127l-.37.579c-.527.829.012 2.126 1.2 2.884z" fill="#ffc2b0"/><g data-name="Group 2087"><path data-name="Path 5399" d="M1028.102 712.657v-.591l-.761.294-.163-.376-19.05-11a1 1 0 00-.9.037l-8.2 4.735v-.131l-1.517.609v.628h.01a.3.3 0 00.144.162l19.824 11.445a1 1 0 00.9-.037l9.5-5.485a.367.367 0 00.218-.292z" fill="#f0f7ff"/><path data-name="Path 5400" d="M1017.473 717.846l-19.824-11.445c-.23-.132-.2-.366.065-.518l9.5-5.485a1 1 0 01.9-.037l19.818 11.445c.23.132.2.365-.064.518l-9.5 5.484a1 1 0 01-.895.038z" fill="#d5ddeb"/><path data-name="Path 5401" d="M1018.828 710.474l-4.8-2.77c-.055-.032-.048-.088.016-.126l2.3-1.327a.245.245 0 01.218-.009l4.8 2.771c.055.032.048.088-.016.126l-2.3 1.327a.242.242 0 01-.218.008z" fill="#f0f7ff"/><path data-name="Path 5402" d="M1016.968 704.966a2.156 2.156 0 00-.913-1.381L996.374 692.4a.494.494 0 00-.436-.069.271.271 0 00-.1.078l-.652.685.592-.053 1.871 12.095a2.154 2.154 0 00.913 1.381l18.61 10.576.6.675.075.166c.377.081 1.278-.558 1.278-.558z" fill="#fff"/><path data-name="Path 5403" d="M1017.54 718.433l-19.681-11.185a2.154 2.154 0 01-.913-1.381l-1.891-12.228c-.081-.522.2-.75.621-.509l19.681 11.185a2.155 2.155 0 01.913 1.381l1.892 12.228c.08.522-.199.75-.622.509z" fill="#d5ddeb"/><path data-name="Path 5404" d="M1007.082 706.594c.1.65-.49.795-1.316.325a3.532 3.532 0 01-1.68-2.027c-.1-.65.489-.8 1.317-.325a3.53 3.53 0 011.679 2.027z" fill="#fff"/></g></g><g data-name="Group 2089"><path data-name="Path 5405" d="M1043.25 686.065c2.021 4.666 4.665 9.47 5.2 14.606.395 3.752.739 9.864-2 12.836-2.6 2.827-6.94 2.337-10.323 1.628-2.091-.438-4.126-1.1-6.165-1.733-.9-.277-1.792-.543-2.693-.8-.377-.108-1.345-.145-.906-.256-3.384.859-4.829-4.371-1.442-5.231 2.5-.636 5.367.723 7.713 1.443 2.328.716 6.762 2.673 9.155 1.6 1.993-.9 1.5-6.84 1.291-8.892-.445-4.343-2.818-8.52-4.522-12.458-1.373-3.17 3.3-5.936 4.684-2.738z" fill="#ffc2b0"/></g><g data-name="Group 2090"><path data-name="Path 5406" d="M1044.385 685.47c3.968 7.841 4.4 16.3 4.4 24.7 0 3.786-7.229 3.953-7.23.156 0-7.925-.361-15.74-4.105-23.141-1.769-3.494 5.187-5.176 6.938-1.715z" fill="#18bdf7"/></g><path data-name="Rectangle 382" d="M1027.186 708.465l.036.133a2.774 2.774 0 01-1.958 3.4l-3.545.954a2.773 2.773 0 01-3.399-1.957l-.036-.133a2.774 2.774 0 011.958-3.4l3.545-.954a2.773 2.773 0 013.399 1.957z" fill="#ffc2b0"/></g></g><g data-name="Group 2105" transform="translate(1027.185 494.649)"><ellipse data-name="Ellipse 3081" cx="11.443" cy="19.821" rx="11.443" ry="19.821" transform="rotate(-89.71 73.8 63.813)" fill="#dbefff"/><path data-name="Path 5407" d="M21.915 118.282l-8.487 1.731-1.143 2.946c-.274 2.112-.259 3.235 1.143 4.349 1.177.937 3.58.214 4.834-.371l5.452-3.279c4.041-2.227 3.736-3.877 3.3-5.237-.649-1.526-2.517-1.173-5.099-.139z" fill="#1b2837"/><path data-name="Path 5408" d="M39.939 128.733l-8.205-2.775-2.47 1.971c-1.3 1.687-1.852 2.665-1.2 4.333.546 1.4 2.986 1.986 4.365 2.112l6.36-.09c4.613.11 5.179-1.47 5.488-2.865.207-1.644-1.586-2.28-4.338-2.686z" fill="#1b2837"/><g data-name="Group 2093"><path data-name="Path 5409" d="M10.967 23.55c-4.629 7.017-6.673 15.97-8.5 24.071a8.022 8.022 0 00-.083 4.5c1.545 5.692 3.3 11.012 3.963 16.947.335 2.991 5.07 3.026 4.731 0a79.057 79.057 0 00-3.434-16.215 66.85 66.85 0 00-1.069-2.948c.346.894-.117 1.553.063.755.113-.5.215-1 .328-1.5 1.745-7.8 3.634-16.467 8.088-23.219 1.681-2.548-2.414-4.921-4.085-2.388z" fill="#ffc2b0"/></g><path data-name="Path 5410" d="M9.631 25.409C6.5 30.864 4.231 40.084 2.172 47.55c-.781 2.06-.289 3.925 1.015 3.842l4.356.6c1.075-.068 3.118-2.392 3.62-4.116l5.524-18.984c.9-3.089.236-5.746-1.535-6.143l-.4-.06c-.312-1.134-2.762-1.15-5.121 2.72z" fill="#88bdeb"/><path data-name="Path 5411" d="M24.265 59.988L2.408 72.607a1.605 1.605 0 01-2.409-1.39V55.995a1.607 1.607 0 01.8-1.391l21.857-12.619a1.607 1.607 0 012.41 1.391v15.221a1.607 1.607 0 01-.801 1.391z" fill="#1b2837"/><path data-name="Path 5412" d="M16.028 55.688a6.135 6.135 0 01-2.784 4.8c-1.538.888-2.785.177-2.785-1.588a6.134 6.134 0 012.785-4.8c1.538-.886 2.784-.176 2.784 1.588z" fill="#fff"/><path data-name="Path 5413" d="M12.438 69.795l-1.59.72a2.446 2.446 0 01-3.227-1.217 2.447 2.447 0 011.217-3.228l1.59-.719a2.447 2.447 0 013.228 1.217 2.446 2.446 0 01-1.218 3.227z" fill="#ffc2b0"/><path data-name="Path 5414" d="M30.864 8.234l.034.894s.117 2.695-2.535 1.3-2.57-4.755-2.57-4.755 2.016-.239 5.071 2.561z" fill="#fff" opacity=".46"/><path data-name="Path 5415" d="M28.346 10.509c3.459 1.8 3.336-1.347 3.336-1.347l.028.013-.1-1.069c-3.859-3.315-6.313-3.157-6.313-3.157a5.812 5.812 0 003.049 5.56zm-2.417-4.708s1.968-.1 4.923 2.468l.025.774s.091 2.336-2.483 1a4.816 4.816 0 01-2.465-4.242z" fill="#513554"/><path data-name="Path 5416" d="M32.976 9.764l-2.057-.938-.112-1.164 2.057.938z" fill="#513554"/><path data-name="Path 5417" d="M25.462 5.842l-.364-.166a.821.821 0 01-.4-.619c-.024-.251.118-.381.317-.291l.364.166a.824.824 0 01.4.619c.023.252-.119.382-.317.291z" fill="#513554"/><path data-name="Path 5418" d="M38.762 11.911l-.364-.166a.823.823 0 01-.4-.62c-.023-.25.118-.38.317-.29l.364.166a.821.821 0 01.4.619c.023.252-.119.382-.317.291z" fill="#513554"/><g data-name="Group 2098"><g data-name="Group 2097"><g data-name="Group 2095"><g data-name="Group 2094"><path data-name="Path 5419" d="M38.468 10.959a10.542 10.542 0 00-6.256-2.578l.1 1.07.028.012a6.358 6.358 0 003.911 4.653c3.417 1.336 2.217-3.157 2.217-3.157zm-2.36 2.6a4.728 4.728 0 01-2.91-3.458l-.129-.822a8.2 8.2 0 014.879 2s.701 3.273-1.843 2.281z" fill="#2c4482"/></g></g><g data-name="Group 2096"><path data-name="Path 5420" d="M33.672 10.694c-.085-.1-.111-.232-.059-.291l.614-.677c.052-.058.165-.023.25.081.086.1.112.232.06.291l-.614.677c-.053.058-.165.022-.251-.081z" fill="#2c4482"/></g></g></g><path data-name="Path 5421" d="M26.319 7.198c-.086-.1-.113-.232-.06-.291l.615-.677c.053-.058.165-.023.25.08.085.1.112.233.059.291l-.614.677c-.052.054-.164.02-.25-.08z" fill="#fcfeff"/><g data-name="Group 2101"><g data-name="Group 2100"><g data-name="Group 2099"><path data-name="Path 5422" d="M25.541 76.838c3.146 9.23 3.436 19.153 3.14 28.812-.22 7.2-1.357 14.46-1.177 21.66.118 4.723 7.471 4.741 7.352 0-.185-7.4.994-14.859 1.2-22.258.275-10.068-.144-20.557-3.42-30.169-1.518-4.454-8.622-2.542-7.09 1.954z" fill="#1b2837"/></g></g></g><g data-name="Group 2103"><g data-name="Group 2102"><path data-name="Path 5423" d="M10.751 68.553A108.339 108.339 0 0113.746 86.9a52.687 52.687 0 01.4 10.764c-.771 7.318-2.135 14.777-2.085 22.15.033 4.73 7.385 4.74 7.352 0-.051-7.483 1.348-15.047 2.119-22.477.388-3.742-.136-7.4-.506-11.142a117.223 117.223 0 00-3.188-19.6c-1.253-4.556-8.349-2.622-7.09 1.954z" fill="#1b2837"/></g></g><path data-name="Path 5424" d="M16.776 78.273c.679.761-2.238-2.94-1.366-2.414 1.818 1.1 12.026 8.034 14.149 8.069 2.565.042 1.07-2.438 2.98-4.151 1.812-1.626 2.239-4.268 2.415-6.7a4.211 4.211 0 00-.186-1.989A4.286 4.286 0 0033.3 69.51c-4.535-3.432-13.454-11.926-19.788-9.21-7.319 3.144.016 14.331 3.264 17.973z" fill="#1b2837"/><path data-name="Path 5425" d="M11.455 23.952c-1.342 1.731-1.183 2.8-1.119 5.164a5.279 5.279 0 003.854 4.934l22.728 6.375s1.306-8.744-3.177-11.376c-2.415-1.418-6.161-3.686-9.1-5.478-4.326-2.632-10.085-3.618-13.186.381z" fill="#dbefff"/><path data-name="Path 5426" d="M21.82 23.656l1.922-8.568 5.226 3.517-1.574 7.8c-.153 1.268-5.952.161-5.574-2.749z" fill="#ffc2b0"/><path data-name="Path 5427" d="M24.991 2.597s-5.239-3.649-5.289 5.219a15.468 15.468 0 008.772 13.922c3.151 1.5 7-.422 7.176-3.493.751-4.48.762-8.669-.708-12.274.208-3.7-2.34-2.386-6.744-2.625z" fill="#ffc2b0"/><path data-name="Path 5428" d="M21.995 19.807s-6.06-2.25-5.483-10.775C17.135-.194 25.619.601 30.335.148c2.088-.2 3.54-.5 5.678 1.407 1.946 1.734.125 5.632-2.663 5.883-1.106.1-.6 3.079-.823 4.1-.4 1.817-1.53 2.706-1.948 4.468-.4 1.667-2.854 4.281-4.452 4.465-2.847.331-4.132-.664-4.132-.664z" fill="#1b2837"/><path data-name="Path 5429" d="M10.257 65.034c-1.447-.559-1.1-25.427.2-39.161L36.04 38.046c-.128 11.692-1.605 20.918-.2 35.165z" fill="#dbefff"/><path data-name="Path 5430" d="M27.299 75.754c-6.321-2.3-12.341-4.829-15.88-9.168-1.738-1-1.517-2.771.488-3.93a7.594 7.594 0 016.807-.282l15.88 9.168c1.738 1 1.517 2.772-.488 3.93a7.593 7.593 0 01-6.807.282z" fill="#dbefff"/><path data-name="Path 5431" d="M36.04 38.046l-4.216-2.006c-.173 11.4-1.569 20.551-.194 34.543l-.069-.023a2.75 2.75 0 01-1.66 2.283 7.594 7.594 0 01-6.807.282 72.873 72.873 0 01-8.651-3.651c3.49 2.674 8.088 4.539 12.857 6.279a7.593 7.593 0 006.807-.282 2.747 2.747 0 001.659-2.283l.07.023c-1.402-14.248.075-23.473.204-35.165z" fill="#dbefff"/><path data-name="Path 5432" d="M38.623 12.192l-7.819.75a.511.511 0 01-.554-.457.509.509 0 01.457-.554l7.818-.75a.51.51 0 01.554.457.509.509 0 01-.456.554z" fill="#2c4482"/><path data-name="Path 5433" d="M30.783 27.284c-5.87-.883-9.834 2.807-11.235-5.647a1.877 1.877 0 012.535.555 5.849 5.849 0 005.517 2.085 1.859 1.859 0 011.79.84z" fill="#dcefff"/><g data-name="Group 2104"><path data-name="Path 5434" d="M31.749 34.928a40.062 40.062 0 003.224 13.852c1.47 3.224 2.979 7.839 6.161 9.872 7.186 4.589 14.844-7.166 18.238-11.639 1.84-2.425-2.265-4.784-4.085-2.387-1.922 2.534-9.021 13.635-12.68 8.847-3.906-5.113-5.617-12.3-6.126-18.545-.247-3.013-4.979-3.04-4.732 0z" fill="#ffc2b0"/></g><path data-name="Path 5435" d="M29.372 34.87c1.431 12.1 5.245 19.792 10.53 23.705 2.779 1.538 5.378-2.847 4.316-5.5-5.262-4.678-7.109-11.975-7.61-20.3a3.813 3.813 0 00-4.522-2.115 3.564 3.564 0 00-2.714 4.21z" fill="#fff"/><rect data-name="Rectangle 383" width="6.814" height="9.611" rx="3.168" transform="rotate(-141.273 37.156 15.793)" fill="#ffc2b0"/><path data-name="Path 5436" d="M27.576 16.772c-.292.214-.939 6.383 4.249 5.385s4.141-6.189 4.141-6.189-4.117 1.071-5.258-4.037-3.132 4.841-3.132 4.841z" fill="#1b2837"/><path data-name="Path 5437" d="M31.999 14.223c.125 1.458-.621 2.714-1.667 2.8a1.36 1.36 0 01-.339-.012 2.562 2.562 0 01-1.781-2.467c-.125-1.459.621-2.714 1.667-2.8s1.995 1.019 2.12 2.479z" fill="#ffc2b0"/></g><g data-name="Group 2106" opacity=".4" style="mix-blend-mode:multiply;isolation:isolate" fill="#f0f7ff"><path data-name="Path 5438" d="M887.405 560.1a4.2 4.2 0 00.872-4.222c-1.608-5.939-1.77-12.393-1.782-18.37a27.886 27.886 0 01.234-4.4c-.138 1.245.07-.144.208-.5.122-.31.246-.62.379-.926.308-.714.677-1.382 1.049-2.062a.69.69 0 00.044-.095l.1-.1c.219-.231.452-.473.656-.717a1.317 1.317 0 01.14-.136c.2-.147.406-.3.622-.43.115-.073 1.513-1.313 1.632-1.382l-7.826-4.628c-1.2 1.42-4.079 4.5-4.774 6.278-1.363 3.487-1.231 7.2-1.154 11.02a76.917 76.917 0 002.311 18.662 3.253 3.253 0 00.537 1.084l-4.258 6.344c-1.2 2.473-1.64 4.316-.022 5.18 2.2.278 3.147-.2 5.744-2.623l4.576-5.468c.622-1.098 1.186-1.348.712-2.509zm2.016-31.63c.141-.114.224-.171 0 0z"/><path data-name="Path 5439" d="M899.82 529.587a39.3 39.3 0 00-4.66 6.851c-1.289 3.112-1.61 6.458-2.354 9.74-1.325 5.849-2.7 11.657-3.593 17.626a4.173 4.173 0 001.711 4.025l-3.011 7.63c-.652 2.7-.7 4.623 1.027 5.193 2.176-.124 2.985-.775 4.993-3.673l3.3-6.311c.409-1.326.96-1.624-.055-2.974a3.575 3.575 0 00.681-1.679c.866-5.788 2.146-11.448 3.473-17.108.331-1.413.54-2.849.807-4.279.143-.767.3-1.531.482-2.285.084-.34.178-.678.271-1.016l.05-.19c.011-.042.05-.118.086-.209.734-1.8 4.332-5.108 5.608-6.253z"/></g><g data-name="Group 2118"><path data-name="Path 5440" d="M870.661 560.854l4.864-7.246 3.812-1.844c3.5 4.861 2.626 4.4 1.621 6.181l-4.576 5.467c-2.6 2.422-3.539 2.9-5.744 2.623-1.618-.864-1.176-2.709.023-5.181z" fill="#162447"/><path data-name="Path 5441" d="M882.175 570.797l3.212-8.144 3.294-2.541c4.348 4.23 3.415 3.926 2.81 5.894l-3.3 6.31c-2.007 2.9-2.817 3.55-4.993 3.673-1.729-.57-1.676-2.497-1.023-5.192z" fill="#162447"/><g data-name="Group 2117"><g data-name="Group 2107"><path data-name="Path 5442" d="M900.97 482.149c-3.553 4.426-6.068 8.27-7.529 13.789a156.735 156.735 0 00-2.9 15.959c-.523 3.337-6.085 1.922-5.561-1.423.969-6.177 1.791-12.26 3.529-18.24 1.581-5.442 4.582-9.5 8.089-13.871 2.09-2.6 6.454 1.2 4.376 3.785z" fill="#ffc2b0"/></g><path data-name="Path 5443" d="M893.609 476.013l-5.741 12.615c-.712 4.04 9.009 6.785 9.916 3.566l4.356-12.68a4.661 4.661 0 00-2.829-5.321 4.243 4.243 0 00-5.702 1.82z" fill="#eb9e29"/><g data-name="Group 2110"><g data-name="Group 2109"><g data-name="Group 2108"><path data-name="Path 5444" d="M903.007 507.468c-5.383 2.026-10.859 3.833-16.337 5.661-2.931.979-6.058 1.944-8.494 3.742a14.983 14.983 0 00-4.954 6.873c-1.363 3.488-1.231 7.2-1.153 11.02a76.9 76.9 0 002.31 18.661c.6 2.221 3.654 3.45 5.675 2.9 2.413-.651 3.089-2.888 2.486-5.116-1.608-5.939-1.77-12.393-1.782-18.37a27.872 27.872 0 01.234-4.4c-.137 1.245.07-.144.209-.5.121-.31.245-.62.378-.926.308-.714.677-1.382 1.049-2.062.328-.6-.6.593.143-.195.219-.231.453-.473.656-.717.177-.212.854-.675-.074.011.273-.2.547-.4.835-.577a16.449 16.449 0 012.031-1.044c-.934.419.018 0 .236-.083.465-.172.928-.347 1.4-.514 6.094-2.163 12.3-4.071 18.342-6.346a3.82 3.82 0 002.487-5.116c-.8-2.012-3.551-3.705-5.675-2.9z" fill="#162447"/></g></g></g><g data-name="Group 2113"><g data-name="Group 2112"><g data-name="Group 2111"><path data-name="Path 5445" d="M910.21 515.04a162.677 162.677 0 00-14.151 9c-2.778 2.108-5.3 4.5-6.638 7.739-1.288 3.112-1.61 6.458-2.353 9.74-1.325 5.849-2.7 11.657-3.593 17.626-.778 5.2 7.863 7.414 8.642 2.211.865-5.788 2.146-11.447 3.472-17.108.331-1.412.54-2.849.808-4.279.143-.766.3-1.531.482-2.285.083-.34.177-.678.27-1.015.224-.812-.256.563.137-.4a11.381 11.381 0 014.3-5.308c4.372-3.192 9.148-5.913 13.8-8.737 4.514-2.738-.646-9.932-5.18-7.182z" fill="#162447"/></g></g></g><path data-name="Path 5446" d="M904.203 524.341l-10.6-5.51a5.052 5.052 0 01-2.541-6.526 4.824 4.824 0 016.645-1.747l10.594 5.51a5.052 5.052 0 012.541 6.526 4.824 4.824 0 01-6.639 1.747z" fill="#21275e"/><path data-name="Path 5447" d="M891.561 507.98c1.122.068 4.086-9.493 2.077-29.475l27.236 13.34c-1.51 12.931 1.026 13.175-3.342 28.949z" fill="#eb9e29"/><path data-name="Path 5448" d="M906.911 515.129c.645 1.038 9.486-3.357 8.949-19.665-.068-2.073.2-2.244 2.311-1.5l2.772-1.476c-.5 10.533 1.212 13.731-.734 23.641-.665 3.386-4.8 4.727-7.972 2.589z" fill="#eb9e29"/><path data-name="Path 5449" d="M911.178 523.233c-7.706-2.841-15.074-5.917-19.645-10.954-2.149-1.2-2.038-3.19.249-4.426 2.286-1.235 5.559-3.018 7.708-1.82l18.761 11.413c2.149 1.2.948 2.5-1.339 3.738l-.139-1.274c-2.285 1.234-3.45 4.517-5.595 3.323z" fill="#eb9e29"/><path data-name="Path 5450" d="M918.394 518.176l-5.842-7.446c-10.078 14.69-17.54 3.534-20.458 2.142 4.6 4.269 10.979 7.214 17.985 9.8a9.368 9.368 0 008.065-.067c2.287-1.24 2.4-3.231.25-4.429z" fill="#eb9e29"/><path data-name="Path 5451" d="M895.18 474.008c-1.671 1.729-1.526 2.953-1.548 5.611a6.767 6.767 0 004.383 6.131l26.8 10.695s1.921-9.593-3.308-13.243c-2.816-1.966-7.182-5.093-10.61-7.56-5.041-3.625-11.857-5.63-15.717-1.634z" fill="#eb9e29"/><path data-name="Path 5452" d="M906.634 478.424l-3.34-11.055 7.251 2.638 2.718 9.026c.56 1.48-4.296 5.079-6.629-.609z" fill="#ffc2b0"/><path data-name="Path 5453" d="M905.925 475.856c.134.282 3.432-.8 3.291-1.156a7.472 7.472 0 01-2.884 2.733z" fill="#ea8a6c"/><g data-name="Group 2114"><path data-name="Path 5454" d="M923.569 488.87c1.023 4.811 2.436 9.588 3.331 14.41.775 4.173 2.174 9.7.2 13.511-3.312 6.393-14.448 3.749-20.576 5.551-3.356.986-5.4-4.177-2.052-5.161a41.473 41.473 0 0110.253-1.4c2.851-.106 6.761.371 7.557-2.731.891-3.473-.669-8.493-1.459-12.094-.887-4.037-2-8.045-2.862-12.087-.728-3.425 4.883-3.4 5.606 0z" fill="#ffc2b0"/></g><path data-name="Path 5455" d="M888.641 508.276a3.079 3.079 0 011.559 3.972l-2.366 4.806a2.936 2.936 0 01-4.044 1.075 3.079 3.079 0 01-1.559-3.972l2.366-4.806a2.935 2.935 0 014.044-1.075z" fill="#ffc2b0"/><path data-name="Path 5456" d="M915.876 488.128l2.341 14.31c1.652 4.022 10.944 1.695 9.9-1.679l-3.488-13.679a5.064 5.064 0 00-5.192-3.43 3.822 3.822 0 00-3.561 4.478z" fill="#eb9e29"/><g data-name="Group 2115"><path data-name="Path 5457" d="M908.433 521.286l-2.375-.68-.769.3-.213-.378-21.243-11.052a1.088 1.088 0 00-.942.037l-8.111 4.756-.014-.132-1.53.612.069.631h.01a.354.354 0 00.17.163l22.107 11.5a.122.122 0 01.058.086c.462 1.692 1.234 3.207 2.677 2.328l8.983-5.294a2.156 2.156 0 001.13-1.933z" fill="#f0f7ff"/><path data-name="Path 5458" d="M896.498 528.797l-25.458-13.238c-.3-.154-.289-.424.013-.6l10.818-6.343a1.251 1.251 0 011.085-.043l25.458 13.237c.294.154.289.424-.013.6l-10.818 6.344a1.254 1.254 0 01-1.085.043z" fill="#d5ddeb"/><path data-name="Path 5459" d="M897.211 520.271l-6.162-3.2c-.071-.037-.069-.1 0-.145l2.618-1.535a.3.3 0 01.262-.01l6.161 3.2c.071.037.07.1 0 .145l-2.618 1.535a.307.307 0 01-.261.01z" fill="#f0f7ff"/><path data-name="Path 5460" d="M894.264 513.899a2.885 2.885 0 00-1.28-1.6l-25.253-12.936a.644.644 0 00-.536-.081.281.281 0 00-.113.091l-.7.791.712-.061 3.788 13.989a2.885 2.885 0 001.279 1.6l23.879 12.233.813.782.112.192c.467.094 1.478-.646 1.478-.646z" fill="#fff"/><path data-name="Path 5461" d="M896.653 529.476L871.4 516.539a2.89 2.89 0 01-1.28-1.6l-3.83-14.144c-.164-.6.144-.867.688-.588l25.252 12.937a2.889 2.889 0 011.28 1.6l3.83 14.144c.164.603-.144.866-.687.588z" fill="#d5ddeb"/><path data-name="Path 5462" d="M882.491 515.782c.2.752-.492.919-1.553.376a4.811 4.811 0 01-2.291-2.345c-.2-.752.492-.92 1.553-.376a4.811 4.811 0 012.291 2.345z" fill="#fff"/></g><path data-name="Path 5463" d="M897.5 522.004a2.777 2.777 0 011.64-3.892l5.646-1.83a3.635 3.635 0 014.291 1.971 2.777 2.777 0 01-1.64 3.892l-5.645 1.829a3.636 3.636 0 01-4.292-1.97z" fill="#ffc2b0"/><path data-name="Path 5464" d="M907.037 477.511c-.721 2.184 1.854 4.162 2.951 4.163 1.025 0 2.764-.548 3.09-1.267a5.518 5.518 0 00-.128-3.518" fill="none" stroke="#fcfeff" stroke-miterlimit="10" stroke-width=".665"/><g data-name="Group 2116"><path data-name="Path 5465" d="M906.396 475.927l-2.07.217a6.661 6.661 0 01-7.043-4.99l-2.264-10.165a5.049 5.049 0 014.552-6.206l2.07-.217a6.661 6.661 0 017.043 4.99l2.264 10.165a5.049 5.049 0 01-4.552 6.206z" fill="#ffc2b0"/><path data-name="Path 5466" d="M903.885 462.532c-1.995 1.144-3.816.74-6.4.018-2.8-.784-4.047-3.158-2.335-5.148a9.757 9.757 0 013.685-3.314c6.229-3.109 13.928-.585 15.568 6.779 0 0 2.029 8.129-1.8 11.181a1.5 1.5 0 01-2.205-.631s2.055-2.374-1.043-4.089a4.708 4.708 0 01-2.153-3.1 2.616 2.616 0 00-3.317-1.696z" fill="#1b2837"/><path data-name="Path 5467" d="M911.813 469.9a1.467 1.467 0 01-2.5-.182 3.057 3.057 0 01.04-3.407 1.467 1.467 0 012.5.181 3.059 3.059 0 01-.04 3.408z" fill="#ffc2b0"/></g><path data-name="Path 5468" d="M897.309 462.459c-.039.183 6.981 1.575 9.608 5.743a1.138 1.138 0 001.956-.358 5.741 5.741 0 00-.914-5.461c-2.689-3.407-10.366-1.257-10.65.076z" fill="#1b2837"/></g></g><path data-name="Path 5469" d="M678.378 425.658l-6.615 3.824c-.9.517-1.63-.037-1.63-1.233a3.915 3.915 0 011.63-3.114l6.615-3.82c.9-.517 1.63.037 1.63 1.232a3.917 3.917 0 01-1.63 3.111z" fill="#00adee"/><path data-name="Path 5470" d="M678.378 401.043l-6.615 3.82c-.9.517-1.63-.038-1.63-1.233a3.916 3.916 0 011.63-3.115l6.615-3.82c.9-.517 1.63.037 1.63 1.232a3.916 3.916 0 01-1.63 3.116z" fill="#00adee"/><path data-name="Path 5471" d="M678.378 449.689l-6.615 3.82c-.9.517-1.63-.037-1.63-1.233a3.917 3.917 0 011.63-3.115l6.615-3.819c.9-.517 1.63.037 1.63 1.233a3.916 3.916 0 01-1.63 3.114z" fill="#00adee"/><path data-name="Path 5472" d="M678.378 473.721l-6.615 3.819c-.9.517-1.63-.037-1.63-1.233a3.915 3.915 0 011.63-3.114l6.615-3.82c.9-.517 1.63.037 1.63 1.232a3.917 3.917 0 01-1.63 3.116z" fill="#00adee"/><path data-name="Path 5473" d="M678.378 500.333l-6.615 3.82c-.9.517-1.63-.037-1.63-1.233a3.917 3.917 0 011.63-3.115l6.615-3.82c.9-.517 1.63.037 1.63 1.233a3.916 3.916 0 01-1.63 3.115z" fill="#00adee"/></g></svg>